<?xml version="1.0" standalone="no"?>
<!DOCTYPE svg PUBLIC "-//W3C//DTD SVG 20010904//EN"
 "http://www.w3.org/TR/2001/REC-SVG-20010904/DTD/svg10.dtd">
<svg version="1.0" xmlns="http://www.w3.org/2000/svg"
 width="150.000000pt" height="150.000000pt" viewBox="0 0 150.000000 150.000000"
 preserveAspectRatio="xMidYMid meet">
<metadata>
Created by potrace 1.14, written by Peter Selinger 2001-2017
</metadata>
<g transform="translate(0.000000,150.000000) scale(0.100000,-0.100000)"
fill="#000000" stroke="none">
<path d="M0 750 l0 -750 750 0 750 0 0 750 0 750 -750 0 -750 0 0 -750z m268
327 c7 -8 13 -66 14 -134 l3 -121 140 120 c178 152 181 154 200 138 8 -7 15
-16 15 -20 0 -4 -71 -67 -157 -141 -87 -73 -161 -135 -165 -139 -4 -3 66 -75
157 -159 104 -96 165 -160 165 -172 0 -44 -44 -16 -198 128 l-157 147 -5 -140
-5 -139 -25 0 -25 0 -3 314 c-2 245 1 316 10 323 18 11 24 10 36 -5z m907 -16
c53 -24 96 -66 89 -85 -8 -21 -38 -20 -55 1 -26 31 -97 54 -164 54 -117 0
-211 -61 -250 -164 -23 -60 -18 -185 10 -241 45 -92 124 -140 230 -141 154 0
255 108 200 215 -19 37 -67 52 -147 48 -54 -3 -63 -1 -66 16 -6 27 15 36 82
36 119 0 188 -46 201 -133 7 -47 -17 -121 -53 -160 -63 -70 -227 -98 -334 -58
-68 26 -128 81 -164 153 -38 74 -45 199 -15 278 37 99 113 167 220 197 58 16
161 8 216 -16z"/>
</g>
</svg>
