<svg xmlns="http://www.w3.org/2000/svg" version="1.1" xmlns:xlink="http://www.w3.org/1999/xlink" width="512" height="512" x="0" y="0" viewBox="0 0 1707 1707" style="enable-background:new 0 0 512 512" xml:space="preserve" fill-rule="evenodd" class="">
	<g>
		<path fill="#ffb700" d="M145 1353c-13 2-26-3-33-14L4 1161c-8-14-4-33 11-42l116-70c7-5 15-6 23-4s15 7 19 14l108 177c4 7 5 16 3 24s-7 14-14 19l-116 70c-3 2-6 3-9 4z" opacity="1" data-original="#fba617" class="">
		</path>
		<path fill="#ffb700" d="m69 1086 62-37c7-5 15-6 23-4s15 7 19 14l108 177c4 7 5 16 3 24s-7 14-14 19l-61 37z" opacity="1" data-original="#fb9515" class="">
		</path>
		<path fill="#ffb700" d="M1483 1045h-3l-904 100c-12 1-24-5-30-15L390 873c-6-11-6-24 1-34L896 84c6-9 16-14 27-14 10 0 20 6 25 15l552 909c3 4 6 9 7 14 3 17-7 33-24 36z" opacity="1" data-original="#fba617" class="">
		</path>
		<path fill="#ffb700" d="m668 1135-92 10c-12 1-24-5-30-15L390 873c-6-11-6-24 1-34l51-76c2 3 5 6 7 9l213 352c2 3 4 7 6 11z" opacity="1" data-original="#fb9515" class="">
		</path>
		<path fill="#ffb700" d="M608 1653c-12 2-26-3-32-15l-205-337c-9-15-4-33 10-42l114-70c7-4 16-5 23-3 8 2 15 7 19 14l205 337c5 7 6 16 4 23-2 8-7 15-14 19l-114 70c-3 2-7 3-10 4z" opacity="1" data-original="#e1474f" class="">
		</path>
		<path fill="#ffb700" d="m408 1362-37-61c-9-15-4-33 10-42l114-70c7-4 16-5 23-3 8 2 15 7 19 14l38 61z" opacity="1" data-original="#cb4047" class="">
		</path>
		<path fill="#ffffff" d="M313 1370c-4 1-9 0-13-1-8-2-15-7-19-14L68 1004c-5-7-6-16-4-24 2-7 7-14 14-19l294-178c14-9 33-4 42 11l213 351c9 15 4 34-10 43l-294 178c-3 2-6 3-10 4z" opacity="1" data-original="#fee14d" class="">
		</path>
		<path fill="#ffb700" d="M1450 987c-1 1-2 1-3 1l-179 72-469-813L915 73c6-9 16-14 26-14 11 0 20 6 26 15l500 863c3 4 6 9 7 14 3 17-7 33-24 36z" opacity="1" data-original="#fb9515" class="">
		</path>
		<path fill="#ffffff" d="M1455 1097c-57 33-130 14-164-44L819 236c-33-58-13-131 44-164 58-34 131-14 164 44l472 817c34 57 14 131-44 164z" opacity="1" data-original="#fee14d" class="">
		</path>
		<g fill="#ccc">
			<path d="M1256 315c-3 0-6-1-9-2-10-5-14-17-9-26l108-222c5-10 17-14 27-10 10 5 14 17 9 27l-109 222c-3 7-10 11-17 11zM1687 651h-1l-247-16c-11-1-19-10-18-21s9-19 21-19l246 17c11 0 19 10 19 21-1 10-10 18-20 18zM1334 491c-7 0-13-4-17-10-5-10-2-22 7-27l195-113c9-5 21-2 27 7 5 10 2 22-7 27l-195 113c-3 2-7 3-10 3z" fill="#ffb700" opacity="1" data-original="#cccccc" class="">
			</path>
		</g>
	</g>
</svg>
