<svg version="1.1" xmlns="http://www.w3.org/2000/svg" xmlns:xlink="http://www.w3.org/1999/xlink" width="64px" height="64px" viewBox="0,0,256,256">
	<g transform="translate(-8.96,-8.96) scale(1.07,1.07)">
		<g fill="#fcc419" fill-rule="nonzero" stroke="none" stroke-width="5" stroke-linecap="butt" stroke-linejoin="miter" stroke-miterlimit="15" stroke-dasharray="" stroke-dashoffset="0" font-family="none" font-weight="none" font-size="none" text-anchor="none" style="mix-blend-mode: normal">
			<g transform="scale(4,4)">
				<path d="M32,2c-16.542,0 -30,13.458 -30,30c0,7.245 2.582,13.898 6.874,19.088c0.011,0.015 0.012,0.034 0.024,0.048c3.099,3.737 6.991,6.602 11.328,8.453c0.05,0.021 0.099,0.044 0.149,0.065c0.351,0.148 0.706,0.285 1.062,0.419c0.14,0.053 0.28,0.107 0.422,0.158c0.307,0.11 0.616,0.214 0.927,0.314c0.199,0.064 0.398,0.127 0.599,0.187c0.275,0.082 0.551,0.161 0.829,0.236c0.244,0.066 0.49,0.127 0.736,0.186c0.249,0.06 0.499,0.12 0.75,0.173c0.28,0.06 0.563,0.113 0.847,0.165c0.228,0.042 0.455,0.086 0.685,0.123c0.315,0.051 0.632,0.091 0.95,0.132c0.205,0.026 0.409,0.056 0.615,0.078c0.36,0.038 0.723,0.065 1.087,0.09c0.169,0.012 0.337,0.03 0.507,0.039c0.531,0.03 1.068,0.046 1.609,0.046c0.541,0 1.078,-0.016 1.611,-0.044c0.17,-0.009 0.338,-0.027 0.507,-0.039c0.364,-0.026 0.727,-0.052 1.087,-0.09c0.206,-0.022 0.41,-0.052 0.615,-0.078c0.318,-0.041 0.635,-0.081 0.95,-0.132c0.229,-0.037 0.457,-0.081 0.685,-0.123c0.283,-0.052 0.566,-0.105 0.847,-0.165c0.251,-0.054 0.5,-0.113 0.75,-0.173c0.246,-0.06 0.492,-0.121 0.736,-0.186c0.278,-0.074 0.554,-0.154 0.829,-0.236c0.201,-0.06 0.4,-0.123 0.599,-0.187c0.311,-0.1 0.62,-0.204 0.927,-0.314c0.141,-0.051 0.281,-0.105 0.422,-0.158c0.357,-0.134 0.711,-0.272 1.062,-0.419c0.05,-0.021 0.099,-0.044 0.149,-0.065c4.336,-1.851 8.229,-4.716 11.328,-8.453c0.012,-0.014 0.013,-0.034 0.024,-0.048c4.29,-5.192 6.872,-11.845 6.872,-19.09c0,-16.542 -13.458,-30 -30,-30zM37.984,33.217c-0.394,0.256 -0.804,0.485 -1.225,0.685c-0.05,0.024 -0.099,0.049 -0.149,0.072c-2.896,1.317 -6.324,1.317 -9.22,0c-0.05,-0.023 -0.1,-0.048 -0.149,-0.072c-0.422,-0.2 -0.831,-0.429 -1.225,-0.685c-3.015,-1.964 -5.016,-5.359 -5.016,-9.217c0,-6.065 4.935,-11 11,-11c6.065,0 11,4.935 11,11c0,3.858 -2.001,7.253 -5.016,9.217zM25.644,35.329c0.084,0.047 0.167,0.097 0.252,0.142c0.298,0.158 0.6,0.306 0.909,0.439c0.237,0.104 0.482,0.192 0.726,0.282c0.048,0.017 0.096,0.036 0.144,0.053c1.356,0.48 2.807,0.755 4.325,0.755c1.518,0 2.969,-0.275 4.324,-0.755c0.048,-0.017 0.096,-0.036 0.144,-0.053c0.244,-0.09 0.489,-0.178 0.726,-0.282c0.309,-0.133 0.611,-0.281 0.909,-0.439c0.085,-0.046 0.168,-0.095 0.252,-0.142c0.143,-0.08 0.289,-0.156 0.429,-0.242c7.04,2.284 12.511,8.022 14.445,15.139c-2.501,2.909 -5.583,5.305 -9.072,6.994c-0.015,0.007 -0.029,0.015 -0.044,0.022c-0.357,0.172 -0.72,0.334 -1.086,0.492c-0.083,0.035 -0.165,0.071 -0.248,0.106c-0.32,0.134 -0.644,0.261 -0.97,0.383c-0.136,0.051 -0.272,0.101 -0.409,0.149c-0.289,0.103 -0.579,0.202 -0.872,0.296c-0.182,0.058 -0.365,0.113 -0.548,0.167c-0.26,0.078 -0.521,0.153 -0.785,0.223c-0.222,0.059 -0.446,0.113 -0.67,0.166c-0.235,0.056 -0.469,0.113 -0.706,0.163c-0.259,0.055 -0.52,0.102 -0.78,0.149c-0.211,0.039 -0.421,0.08 -0.634,0.114c-0.293,0.046 -0.589,0.083 -0.884,0.12c-0.187,0.024 -0.373,0.052 -0.562,0.072c-0.337,0.036 -0.677,0.059 -1.016,0.083c-0.151,0.01 -0.301,0.027 -0.454,0.035c-0.495,0.026 -0.991,0.04 -1.489,0.04c-0.498,0 -0.994,-0.014 -1.488,-0.04c-0.152,-0.008 -0.302,-0.024 -0.454,-0.035c-0.34,-0.023 -0.679,-0.047 -1.016,-0.083c-0.189,-0.02 -0.375,-0.048 -0.562,-0.072c-0.295,-0.037 -0.591,-0.074 -0.884,-0.12c-0.213,-0.034 -0.423,-0.075 -0.634,-0.114c-0.261,-0.047 -0.522,-0.095 -0.78,-0.149c-0.237,-0.05 -0.472,-0.107 -0.706,-0.163c-0.224,-0.054 -0.448,-0.107 -0.67,-0.166c-0.263,-0.07 -0.525,-0.146 -0.785,-0.223c-0.183,-0.054 -0.366,-0.109 -0.548,-0.167c-0.293,-0.094 -0.584,-0.193 -0.872,-0.296c-0.137,-0.049 -0.273,-0.099 -0.409,-0.149c-0.326,-0.122 -0.65,-0.249 -0.97,-0.383c-0.083,-0.034 -0.164,-0.07 -0.247,-0.105c-0.366,-0.157 -0.729,-0.32 -1.087,-0.492c-0.015,-0.007 -0.029,-0.014 -0.044,-0.022c-3.489,-1.688 -6.571,-4.084 -9.072,-6.994c1.933,-7.118 7.405,-12.856 14.445,-15.139c0.139,0.085 0.284,0.161 0.427,0.241zM54.729,48.323c-2.267,-6.694 -7.439,-12.104 -14.047,-14.674c2.643,-2.381 4.318,-5.819 4.318,-9.649c0,-7.168 -5.832,-13 -13,-13c-7.168,0 -13,5.832 -13,13c0,3.83 1.675,7.268 4.319,9.649c-6.608,2.571 -11.78,7.98 -14.047,14.674c-3.313,-4.599 -5.272,-10.235 -5.272,-16.323c0,-15.439 12.561,-28 28,-28c15.439,0 28,12.561 28,28c0,6.088 -1.959,11.724 -5.271,16.323z">
				</path>
			</g>
		</g>
	</g>
</svg>
