<?xml version="1.0" encoding="utf-8"?>
<!DOCTYPE svg PUBLIC "-//W3C//DTD SVG 1.1//EN" "http://www.w3.org/Graphics/SVG/1.1/DTD/svg11.dtd">
<svg version="1.1" xmlns="http://www.w3.org/2000/svg" xmlns:xlink="http://www.w3.org/1999/xlink" width="32" height="32" viewBox="0 0 32 32" data-tags="film,movie,video">
	<g fill="white" transform="scale(0.03125 0.03125)">
		<path d="M970.72 846.24c-4.096-7.072-17.216-9.248-39.392-6.464-40.8 5.28-70.432-8.032-88.896-40.032-13.984-24.192-17.6-48.512-10.848-72.96s26.752-59.328 59.968-104.704l20.768-28.928c61.696-85.216 74.336-159.328 37.952-222.4-37.024-64.192-144-58.784-220.896-25.792-62.208-128.288-193.28-216.96-345.376-216.96-212.096 0-384 171.936-384 384 0 212.064 171.904 384 384 384 212.064 0 384-171.936 384-384 0-47.008-8.864-91.872-24.32-133.472 25.952-9.312 56.992-16.064 86.272-17.152 38.464-1.408 73.28 6.656 87.104 30.592 30.816 53.408 15.936 116.512-44.64 189.216l-12.416 14.912c-70.848 85.024-87.776 159.488-50.912 223.424 14.912 25.792 38.624 44.192 71.2 55.264 32.576 11.040 60.128 9.984 82.72-3.072 11.2-6.464 13.792-14.976 7.712-25.472zM208 593.984c-44.192 0-80-35.808-80-80 0-44.16 35.808-80 80-80s80 35.808 80 80c0 44.192-35.808 80-80 80zM384 769.984c-44.192 0-80-35.808-80-80s35.808-80 80-80 80 35.808 80 80-35.808 80-80 80zM352.64 513.984c0-17.664 14.368-32 32.032-32s32 14.304 32 32c0 17.696-14.336 32-32 32s-32.032-14.304-32.032-32zM384 417.984c-44.192 0-80-35.808-80-80 0-44.16 35.808-80 80-80s80 35.808 80 80c0 44.192-35.808 80-80 80zM560 593.984c-44.192 0-80-35.808-80-80 0-44.16 35.808-80 80-80s80 35.808 80 80c0 44.192-35.808 80-80 80z" />
	</g>
</svg>
