<?xml version="1.0" encoding="utf-8"?>
<!DOCTYPE svg PUBLIC "-//W3C//DTD SVG 1.1//EN" "http://www.w3.org/Graphics/SVG/1.1/DTD/svg11.dtd">
<svg version="1.1" xmlns="http://www.w3.org/2000/svg" xmlns:xlink="http://www.w3.org/1999/xlink" width="24" height="24" viewBox="0 0 24 24" data-tags="tv">
	<g fill="white" transform="scale(0.0234375 0.0234375)">
		<path d="M512 341.333h341.333c11.776 0 22.4 4.736 30.165 12.501s12.501 18.389 12.501 30.165v469.333c0 11.776-4.736 22.4-12.501 30.165s-18.389 12.501-30.165 12.501h-682.667c-11.776 0-22.4-4.736-30.165-12.501s-12.501-18.389-12.501-30.165v-469.333c0-11.776 4.736-22.4 12.501-30.165s18.389-12.501 30.165-12.501h341.333zM695.168 55.168l-183.168 183.168-183.168-183.168c-16.683-16.683-43.691-16.683-60.331 0s-16.683 43.691 0 60.331l140.501 140.501h-238.336c-35.328 0-67.413 14.379-90.496 37.504s-37.504 55.168-37.504 90.496v469.333c0 35.328 14.379 67.413 37.504 90.496s55.168 37.504 90.496 37.504h682.667c35.328 0 67.413-14.379 90.496-37.504s37.504-55.168 37.504-90.496v-469.333c0-35.328-14.379-67.413-37.504-90.496s-55.168-37.504-90.496-37.504h-238.336l140.501-140.501c16.683-16.683 16.683-43.691 0-60.331s-43.691-16.683-60.331 0z" />
	</g>
</svg>
