<?xml version="1.0" standalone="no"?>
<!DOCTYPE svg PUBLIC "-//W3C//DTD SVG 20010904//EN"
 "http://www.w3.org/TR/2001/REC-SVG-20010904/DTD/svg10.dtd">
<svg version="1.0" xmlns="http://www.w3.org/2000/svg"
 width="576.000000pt" height="576.000000pt" viewBox="0 0 576.000000 576.000000"
 preserveAspectRatio="xMidYMid meet">
<metadata>
Created by potrace 1.14, written by Peter Selinger 2001-2017
</metadata>
<g transform="translate(0.000000,576.000000) scale(0.100000,-0.100000)"
fill="#000000" stroke="none">
<path d="M0 2880 l0 -2880 2880 0 2880 0 0 2880 0 2880 -2880 0 -2880 0 0
-2880z m2450 1135 c36 -19 60 -52 60 -85 0 -30 -51 -82 -210 -215 -205 -171
-395 -331 -485 -406 -283 -240 -374 -317 -404 -339 l-33 -25 88 -80 c49 -44
121 -109 159 -145 150 -139 637 -592 763 -709 73 -67 137 -131 142 -141 12
-23 -1 -61 -30 -90 -28 -28 -87 -27 -128 4 -39 28 -427 386 -967 891 -70 66
-131 121 -134 122 -3 2 -8 -216 -9 -485 -3 -289 -8 -491 -13 -497 -12 -12
-144 -13 -156 -2 -9 9 -17 2128 -8 2164 10 41 131 51 169 13 7 -7 11 -144 11
-460 0 -248 2 -450 5 -450 3 0 82 66 176 148 94 81 253 217 354 302 100 85
251 213 334 284 160 137 262 216 278 216 5 0 22 -7 38 -15z m1729 -24 c201
-51 346 -134 454 -261 50 -59 50 -91 -3 -126 -51 -34 -73 -28 -145 35 -167
146 -379 211 -645 198 -238 -12 -438 -97 -594 -253 -99 -100 -200 -285 -242
-449 -26 -97 -25 -380 0 -475 118 -442 369 -667 803 -722 85 -11 104 -10 220
11 187 34 277 70 397 155 76 54 156 165 183 254 26 85 23 211 -6 286 -33 84
-109 159 -181 180 -117 35 -182 41 -312 28 -195 -19 -224 -17 -259 17 -48 49
-37 94 35 136 41 24 48 25 223 25 213 0 316 -16 418 -65 183 -88 288 -261 287
-475 -2 -290 -200 -545 -514 -659 -156 -57 -212 -66 -423 -66 -178 0 -209 3
-280 23 -255 72 -434 193 -578 387 -289 392 -302 994 -29 1380 163 232 395
385 673 444 129 28 392 23 518 -8z"/>
</g>
</svg>
